<?xml version="1.0" encoding="iso-8859-1"?>
<!-- Uploaded to: SVG Repo, www.svgrepo.com, Generator: SVG Repo Mixer Tools -->
<svg version="1.1" id="Layer_1" xmlns="http://www.w3.org/2000/svg" xmlns:xlink="http://www.w3.org/1999/xlink" 
	 viewBox="0 0 512 512" xml:space="preserve">
<rect x="152.921" y="367.595" style="fill:#F2BF7E;" width="286.96" height="135.513"/>
<rect x="73.206" y="8.897" style="fill:#E2804F;" width="286.96" height="135.513"/>
<polygon style="fill:#F2BF7E;" points="360.167,9.91 216.688,81.65 73.209,9.91 "/>
<polygon style="fill:#D4E4AC;" points="439.878,367.265 296.399,439.005 152.92,367.265 "/>
<path d="M145.083,359.758V510.94h302.632V359.758H145.083z M406.681,375.431l-110.282,55.141l-110.283-55.141H406.681z
	 M160.757,495.265V380.274l135.642,67.821l135.641-67.821v114.991H160.757z"/>
<path d="M97.176,375.625H65.238c-22.273,0-39.722-17.212-39.722-39.184s17.448-39.184,39.722-39.184h119.567
	c22.058,0,40.061-18.202,40.061-40.576s-17.976-40.575-39.919-40.575v-15.673c30.302,0,55.592,25.233,55.592,56.249
	s-25.035,56.249-55.735,56.249H65.238c-13.484,0-24.048,10.327-24.048,23.51s10.563,23.51,24.048,23.51h31.937V375.625z"/>
<path d="M184.804,289.943H73.143V274.27h111.661c8.846,0,16.043-7.314,16.043-15.673h15.673
	C216.521,275.314,202.293,289.943,184.804,289.943z"/>
<rect x="104.49" y="359.956" width="33.437" height="15.673"/>
<rect y="310.846" width="15.673" height="16.718"/>
<path d="M80.457,400.702H64.193c-34.999,0-63.473-28.212-63.473-63.739h15.673c0,26.122,21.442,48.065,47.8,48.065h16.264V400.702z"
	/>
<rect x="89.861" y="385.034" width="22.988" height="15.673"/>
<rect x="64.784" y="410.111" width="63.739" height="15.673"/>
<rect x="97.176" y="433.099" width="24.033" height="15.673"/>
<path d="M65.372,1.06v151.181h302.632V1.06H65.372z M326.97,16.734L216.688,71.875L106.406,16.734H326.97z M81.045,136.568V21.577
	l135.641,67.821L352.33,21.577v114.991H81.045z"/>
<path d="M329.143,313.118c-31.347,0-56.093-24.885-56.093-55.473s24.672-55.473,55.233-55.473H447.85
	c13.484,0,24.047-10.327,24.047-23.51c0-13.183-10.562-23.51-24.047-23.51h-30.935v-15.673h30.934
	c22.273,0,39.721,17.212,39.721,39.184s-17.447,39.184-39.721,39.184H328.283c-21.92,0-39.56,17.854-39.56,39.799
	s17.432,39.799,40.42,39.799V313.118z"/>
<path d="M312.219,256.506h-15.673c0-16.718,14.238-31.347,31.738-31.347h111.619v15.673H328.283
	C319.424,240.833,312.219,248.147,312.219,256.506z"/>
<rect x="375.118" y="139.483" width="34.482" height="15.673"/>
<rect x="496.327" y="184.414" width="15.673" height="16.718"/>
<path d="M511.823,177.094H496.15c0-26.122-21.667-48.065-48.301-48.065h-15.261v-15.673h15.261
	C483.124,113.355,511.823,141.567,511.823,177.094z"/>
<rect x="400.196" y="113.35" width="24.033" height="15.673"/>
<rect x="384.522" y="89.317" width="63.739" height="15.673"/>
<rect x="391.837" y="65.285" width="25.078" height="15.673"/>
</svg>